# xmcd CD database file
#
# Track frame offsets:
#	150
#	55187
#	97090
#	137357
#	171295
#	208767
#
# Disc length: 3977 seconds
#
# Revision: 0
# Processed by: cddbd v1.5.2PL0 Copyright (c) Steve Scherf et al.
# Submitted via: Kat CD Ripper 
#
DISCID=510f8706
DTITLE=Wavestar - Moonwind
DYEAR=1987
DGENRE=New Age
TTITLE0=Voyager
TTITLE1=Edge of Morning
TTITLE2=Cabala
TTITLE3=Troll Valley
TTITLE4=Moonwind
TTITLE5=Chase the Evening
EXTD=YEAR: 1987
EXTT0=
EXTT1=
EXTT2=
EXTT3=
EXTT4=
EXTT5=
PLAYORDER=
